<svg width="40" height="40" viewBox="0 0 40 40" fill="none" xmlns="http://www.w3.org/2000/svg">
<g clip-path="url(#clip0_171_12113)">
<path d="M32 0H8C3.58172 0 0 3.58172 0 8V32C0 36.4183 3.58172 40 8 40H32C36.4183 40 40 36.4183 40 32V8C40 3.58172 36.4183 0 32 0Z" fill="url(#paint0_linear_171_12113)"/>
<g filter="url(#filter0_d_171_12113)">
<path fill-rule="evenodd" clip-rule="evenodd" d="M28.5135 9.02741C29.6048 9.80068 28.8121 11.4365 27.4888 11.1791C26.6988 11.0255 25.909 10.8683 25.1241 10.6916C23.5866 10.3455 23.1697 11.148 22.9494 12.468C22.9237 12.6224 22.7815 12.7309 22.6263 12.7104L18.986 12.2298C18.8244 12.2085 18.7134 12.0569 18.7429 11.8965C18.9469 10.7869 19.0539 10.2056 17.6659 10.0007C17.3712 9.95717 17.0761 9.91532 16.781 9.87348C15.822 9.73747 14.8627 9.60144 13.9159 9.4085C13.6245 9.34911 13.1924 8.95149 13.1915 8.70815C13.1883 7.89107 13.2859 7.07215 13.3833 6.25572C13.398 6.13205 13.4128 6.00843 13.4271 5.88489C13.5035 5.22859 13.9798 5.00182 14.5891 5.00028C18.721 4.98925 21.2655 5.30349 25.0482 6.99012C26.2203 7.51278 27.3878 8.22976 28.5135 9.02741ZM18.6982 14.2501C18.5311 14.2281 18.3774 14.3446 18.3533 14.5114C18.1962 15.599 18.0343 16.6861 17.8725 17.7731C17.7295 18.7335 17.5865 19.6938 17.4468 20.6546C17.2208 22.2089 16.8661 24.2087 16.508 26.2282C16.1173 28.4314 15.7225 30.6579 15.486 32.355C15.3558 33.2895 16.3471 33.9858 17.2841 34.4279C18.2779 34.897 19.9992 35.4532 20.1965 34.3946C20.2255 34.2391 20.2415 34.0813 20.2575 33.9235C20.2641 33.8576 20.2708 33.7918 20.2784 33.7261C20.6767 30.2902 21.1222 26.855 21.5677 23.4199C21.9285 20.6383 22.2892 17.8569 22.6248 15.0752C22.645 14.9079 22.5268 14.7556 22.3598 14.7335L18.6982 14.2501Z" fill="url(#paint1_linear_171_12113)" shape-rendering="crispEdges"/>
</g>
</g>
<defs>
<filter id="filter0_d_171_12113" x="7.19141" y="0" width="27.8357" height="42" filterUnits="userSpaceOnUse" color-interpolation-filters="sRGB">
<feFlood flood-opacity="0" result="BackgroundImageFix"/>
<feColorMatrix in="SourceAlpha" type="matrix" values="0 0 0 0 0 0 0 0 0 0 0 0 0 0 0 0 0 0 127 0" result="hardAlpha"/>
<feOffset dy="1"/>
<feGaussianBlur stdDeviation="3"/>
<feComposite in2="hardAlpha" operator="out"/>
<feColorMatrix type="matrix" values="0 0 0 0 1 0 0 0 0 0.391333 0 0 0 0 0.308333 0 0 0 1 0"/>
<feBlend mode="normal" in2="BackgroundImageFix" result="effect1_dropShadow_171_12113"/>
<feBlend mode="normal" in="SourceGraphic" in2="effect1_dropShadow_171_12113" result="shape"/>
</filter>
<linearGradient id="paint0_linear_171_12113" x1="1" y1="40.5" x2="15.6802" y2="-7.71002" gradientUnits="userSpaceOnUse">
<stop stop-color="#FF7D00"/>
<stop offset="1" stop-color="#FF5139"/>
</linearGradient>
<linearGradient id="paint1_linear_171_12113" x1="21.1092" y1="5" x2="21.1092" y2="35" gradientUnits="userSpaceOnUse">
<stop stop-color="white"/>
<stop offset="1" stop-color="white" stop-opacity="0.8"/>
</linearGradient>
<clipPath id="clip0_171_12113">
<rect width="40" height="40" fill="white"/>
</clipPath>
</defs>
</svg>
