<svg width="97" height="20" viewBox="0 0 97 20" fill="none" xmlns="http://www.w3.org/2000/svg">
<path d="M85.6977 5.38239L83.655 19.2656H80.4938L80.5911 18.2706C79.8129 19.0919 78.8645 19.5025 77.746 19.5025C76.7246 19.5025 75.8978 19.2182 75.2656 18.6496C74.6496 18.081 74.3416 17.165 74.3416 15.9014C74.3416 15.4434 74.374 14.9932 74.4388 14.551L75.7519 5.38239H79.0834L77.7703 14.3141C77.7216 14.6458 77.6973 14.9301 77.6973 15.167C77.6973 16.0988 78.0783 16.5648 78.8402 16.5648C79.359 16.5648 79.8129 16.3673 80.202 15.9725C80.6073 15.5776 80.8991 15.0248 81.0774 14.3141L82.3662 5.38239H85.6977Z" fill="white"/>
<path d="M69.2331 5.28761C70.2706 5.28761 71.0974 5.57191 71.7134 6.1405C72.3295 6.7091 72.6375 7.63307 72.6375 8.91241C72.6375 9.35465 72.6051 9.78899 72.5402 10.2154L71.2028 19.4077H67.8713L69.1845 10.476C69.2331 10.1444 69.2574 9.86007 69.2574 9.62315C69.2574 9.13353 69.1602 8.77816 68.9656 8.55704C68.7873 8.33592 68.5036 8.22536 68.1145 8.22536C67.5795 8.22536 67.1094 8.44648 66.7041 8.88872C66.2988 9.33096 66.0151 9.93904 65.853 10.713L64.5885 19.4077H61.2571L64.0536 0.265015H67.3607L66.4609 6.44849C67.2067 5.67457 68.1307 5.28761 69.2331 5.28761Z" fill="white"/>
<path d="M53.415 19.5025C51.7939 19.5025 50.578 19.076 49.7675 18.2231C48.9731 17.386 48.5759 16.0988 48.5759 14.3614C48.5759 13.7455 48.6246 13.0742 48.7218 12.3477C49.0461 9.89954 49.735 8.09109 50.7888 6.92231C51.8425 5.73773 53.2691 5.14545 55.0686 5.14545C56.3331 5.14545 57.3706 5.53241 58.1812 6.30633C59.008 7.06446 59.4619 8.15426 59.543 9.57575L56.4304 9.90743C56.3007 8.6123 55.7819 7.96473 54.8741 7.96473C54.1608 7.96473 53.5772 8.28852 53.1232 8.93608C52.6855 9.58365 52.3451 10.6577 52.1019 12.1581C51.9722 13.1216 51.9074 13.8639 51.9074 14.3851C51.9074 15.2064 52.029 15.7987 52.2721 16.162C52.5315 16.5095 52.9287 16.6832 53.4637 16.6832C54.0149 16.6832 54.4526 16.5174 54.7768 16.1857C55.101 15.854 55.3847 15.2933 55.6279 14.5036L58.6189 14.9774C58.3109 16.5411 57.7273 17.6861 56.8681 18.4127C56.0089 19.1392 54.8579 19.5025 53.415 19.5025Z" fill="white"/>
<path d="M46.8802 5.38235L44.8619 19.2656H41.7006L41.7736 18.5548C41.0765 19.1866 40.2497 19.5025 39.2932 19.5025C37.9315 19.5025 36.894 19.1076 36.1806 18.3179C35.4836 17.5282 35.135 16.2646 35.135 14.5273C35.135 13.8481 35.1999 13.0031 35.3295 11.9923C35.6538 9.71789 36.3022 8.01211 37.2749 6.87492C38.2638 5.73772 39.5283 5.16913 41.0684 5.16913C42.1221 5.16913 42.9246 5.50081 43.4758 6.16417L43.5731 5.38235H46.8802ZM39.9012 16.6595C40.4848 16.6595 40.9873 16.4068 41.4088 15.9014C41.8465 15.3802 42.1465 14.7168 42.3086 13.9113H42.3329L42.7949 10.7366C42.8922 8.92028 42.4139 8.01211 41.3602 8.01211C39.966 8.01211 39.0663 9.4178 38.661 12.2292C38.5475 13.2242 38.4908 13.9508 38.4908 14.4088C38.4908 15.1669 38.5962 15.7355 38.8069 16.1146C39.0339 16.4779 39.3986 16.6595 39.9012 16.6595Z" fill="white"/>
<path d="M26.3825 1.02313C28.7169 1.02313 30.4515 1.63121 31.5863 2.84738C32.7373 4.04775 33.3129 5.80881 33.3129 8.13058C33.3129 8.71497 33.2561 9.48099 33.1426 10.4287C32.867 12.6083 32.3888 14.3535 31.7079 15.6645C31.0433 16.9596 30.1354 17.9073 28.9844 18.5075C27.8334 19.1076 26.3825 19.4077 24.6316 19.4077H19.9871L22.6619 1.02313H26.3825ZM29.6653 10.4997C29.795 9.58366 29.8598 8.81763 29.8598 8.20165C29.8598 5.40606 28.8223 3.98457 26.7472 3.93719L25.653 3.91349L23.8049 16.4937H24.9234C27.5173 16.4937 29.0979 14.4957 29.6653 10.4997Z" fill="white"/>
<path d="M12.8881 11.1157C12.7908 11.7001 12.7422 12.1344 12.7422 12.4187C12.7422 12.6399 12.7746 12.7978 12.8395 12.8926C12.9043 12.9873 13.0097 13.0347 13.1556 13.0347C13.4636 13.0347 13.7311 12.782 13.958 12.2766C14.2012 11.7554 14.4201 10.7682 14.6146 9.31514C14.7119 8.62019 14.7605 7.99632 14.7605 7.44352C14.7605 5.94306 14.4039 4.83745 13.6906 4.12671C12.9773 3.40017 11.8181 3.0369 10.2132 3.0369C8.54342 3.0369 7.07629 3.52653 5.8118 4.50577C4.54731 5.48502 3.70431 7.29347 3.28281 9.93112C3.13691 10.8788 3.06396 11.7159 3.06396 12.4424C3.06396 13.7376 3.29092 14.7484 3.74484 15.4749C4.19876 16.2015 4.85532 16.7148 5.71453 17.0149C6.58995 17.2992 7.70854 17.4413 9.0703 17.4413C10.1403 17.4413 11.0886 17.3308 11.9154 17.1096C12.7584 16.8727 13.6662 16.4858 14.6389 15.9488L15.6602 18.2231C14.6876 18.9023 13.6662 19.3682 12.5963 19.6209C11.5263 19.8737 10.2213 20 8.68122 20C5.73074 20 3.5422 19.4077 2.11559 18.2231C0.705197 17.0544 0 15.2143 0 12.703C0 11.9133 0.0729515 11.0446 0.218854 10.097C0.721409 6.82754 1.83189 4.40311 3.5503 2.82368C5.28493 1.24425 7.53831 0.454529 10.3105 0.454529C12.7422 0.454529 14.5822 1.0863 15.8305 2.34985C17.0787 3.61339 17.7029 5.39025 17.7029 7.68043C17.7029 8.26482 17.6705 8.80973 17.6056 9.31514C17.3462 11.4158 16.8194 13.0031 16.025 14.0771C15.2469 15.1354 14.1202 15.6645 12.6449 15.6645C11.4291 15.6645 10.5861 15.2775 10.1159 14.5036C9.54853 15.2933 8.76228 15.6882 7.75717 15.6882C6.63858 15.6882 5.77937 15.396 5.17955 14.8116C4.59594 14.2272 4.30413 13.2874 4.30413 11.9923C4.30413 11.3763 4.36087 10.7366 4.47435 10.0733C4.74995 8.43066 5.28493 7.17501 6.07929 6.30633C6.87365 5.42184 7.89497 4.9796 9.14325 4.9796C9.80792 4.9796 10.3672 5.23231 10.8211 5.73773L10.9184 5.14544H13.8608L12.8881 11.1157ZM8.14624 13.3664C8.50289 13.3664 8.82712 13.24 9.11893 12.9873C9.41074 12.7188 9.63769 12.3161 9.79981 11.7791C9.79981 11.7001 9.81602 11.5658 9.84844 11.3763L10.2862 8.8887C10.3186 7.83048 9.98624 7.30137 9.28915 7.30137C8.39752 7.30137 7.78149 8.28851 7.44105 10.2628C7.32757 10.8788 7.27083 11.4237 7.27083 11.8975C7.27083 12.8768 7.56263 13.3664 8.14624 13.3664Z" fill="white"/>
<path fill-rule="evenodd" clip-rule="evenodd" d="M95.9185 2.59885C96.6227 3.09784 96.1112 4.15344 95.2573 3.98733C94.7474 3.88817 94.2378 3.78674 93.7313 3.67273C92.7392 3.44943 92.4701 3.96723 92.328 4.81903C92.3114 4.91867 92.2197 4.98868 92.1195 4.97546L89.7705 4.66534C89.6662 4.65157 89.5945 4.55373 89.6136 4.45027C89.7453 3.73426 89.8142 3.35913 88.9186 3.22689C88.7284 3.19882 88.538 3.17182 88.3476 3.14481C87.7287 3.05705 87.1097 2.96927 86.4987 2.84477C86.3107 2.80644 86.0319 2.54986 86.0313 2.39283C86.0292 1.86558 86.0923 1.33714 86.1551 0.810308C86.1646 0.730502 86.1741 0.650733 86.1834 0.57101C86.2326 0.147504 86.54 0.00117476 86.9332 0.000177583C89.5994 -0.00693438 91.2414 0.19584 93.6824 1.28421C94.4387 1.62148 95.1921 2.08413 95.9185 2.59885ZM89.5847 5.96904C89.4769 5.95481 89.3777 6.02997 89.3622 6.1376C89.2608 6.83945 89.1563 7.54091 89.0519 8.24239C88.9596 8.86209 88.8674 9.48179 88.7772 10.1018C88.6314 11.1047 88.4025 12.3952 88.1714 13.6984C87.9193 15.1201 87.6645 16.5568 87.5119 17.6519C87.4279 18.255 88.0676 18.7043 88.6722 18.9896C89.3136 19.2923 90.4243 19.6512 90.5516 18.9681C90.5703 18.8678 90.5806 18.7659 90.5909 18.6641C90.5952 18.6216 90.5995 18.5791 90.6045 18.5367C90.8615 16.3196 91.1489 14.1028 91.4364 11.8862C91.6692 10.0913 91.902 8.29642 92.1186 6.50141C92.1316 6.39348 92.0553 6.2952 91.9475 6.28097L89.5847 5.96904Z" fill="url(#paint0_linear_171_12090)"/>
<defs>
<linearGradient id="paint0_linear_171_12090" x1="88" y1="18" x2="95.5" y2="2" gradientUnits="userSpaceOnUse">
<stop stop-color="#FF7D00"/>
<stop offset="1" stop-color="#FF5139"/>
</linearGradient>
</defs>
</svg>
