<svg width="14" height="14" viewBox="0 0 14 14" fill="none" xmlns="http://www.w3.org/2000/svg">
<path d="M9.91665 10.5C10.2388 10.5 10.5 10.7612 10.5 11.0834V11.0834C10.5 11.4056 10.2388 11.6667 9.91665 11.6667H4.08335C3.76117 11.6667 3.5 11.4056 3.5 11.0834V11.0834C3.5 10.7612 3.76117 10.5 4.08335 10.5H9.91665ZM9.91667 2.33337C10.2388 2.33337 10.5 2.59454 10.5 2.91671V2.91671C10.5 3.23888 10.2388 3.50004 9.91666 3.50004H4.08333C3.76117 3.50004 3.5 3.23888 3.5 2.91671V2.91671C3.5 2.59454 3.76117 2.33337 4.08334 2.33337H9.91667Z" fill="#E8E8F6"/>
<path d="M2.33333 7.58341H11.6667C11.9888 7.58341 12.25 7.32224 12.25 7.00008C12.25 6.67791 11.9888 6.41675 11.6667 6.41675H2.33333C2.01117 6.41675 1.75 6.67791 1.75 7.00008C1.75 7.32224 2.01117 7.58341 2.33333 7.58341Z" fill="#FF7D00"/>
</svg>
