<svg width="14" height="14" viewBox="0 0 14 14" fill="none" xmlns="http://www.w3.org/2000/svg">
<g clip-path="url(#clip0_171_12122)">
<mask id="mask0_171_12122" style="mask-type:luminance" maskUnits="userSpaceOnUse" x="0" y="0" width="14" height="14">
<path d="M14 0H0V14H14V0Z" fill="white"/>
</mask>
<g mask="url(#mask0_171_12122)">
<path d="M6.99992 10.5C5.06692 10.5 3.49992 8.93303 3.49992 7.00004C3.49992 5.06704 5.06692 3.50004 6.99992 3.50004C8.93291 3.50004 10.4999 5.06704 10.4999 7.00004C10.4999 8.93303 8.93291 10.5 6.99992 10.5ZM6.99992 9.33337C8.28856 9.33337 9.33325 8.28868 9.33325 7.00004C9.33325 5.71138 8.28856 4.66671 6.99992 4.66671C5.71125 4.66671 4.66658 5.71138 4.66658 7.00004C4.66658 8.28868 5.71125 9.33337 6.99992 9.33337ZM6.41658 1.16671C6.41658 0.844542 6.67775 0.583374 6.99992 0.583374V0.583374C7.32208 0.583374 7.58325 0.844542 7.58325 1.16671V1.75003C7.58325 2.0722 7.32208 2.33337 6.99992 2.33337V2.33337C6.67775 2.33337 6.41658 2.0722 6.41658 1.75003V1.16671ZM6.41658 12.2501C6.41658 11.9279 6.67775 11.6667 6.99992 11.6667V11.6667C7.32208 11.6667 7.58325 11.9279 7.58325 12.2501V12.8334C7.58325 13.1556 7.32208 13.4167 6.99992 13.4167V13.4167C6.67775 13.4167 6.41658 13.1556 6.41658 12.8334V12.2501ZM2.46265 3.28773C2.23484 3.05992 2.23484 2.69058 2.46265 2.46277V2.46277C2.69046 2.23496 3.0598 2.23497 3.28761 2.46277L3.70009 2.87525C3.92789 3.10306 3.92789 3.4724 3.70009 3.70021V3.70021C3.47228 3.92801 3.10294 3.92802 2.87513 3.70021L2.46265 3.28773ZM10.2998 11.1249C10.0719 10.897 10.0719 10.5276 10.2998 10.2998V10.2998C10.5276 10.072 10.897 10.072 11.1248 10.2999L11.5372 10.7123C11.765 10.9401 11.765 11.3095 11.5372 11.5373V11.5373C11.3094 11.7651 10.94 11.7651 10.7122 11.5373L10.2998 11.1249ZM10.7122 2.46277C10.94 2.23496 11.3094 2.23496 11.5372 2.46276V2.46276C11.765 2.69057 11.765 3.05994 11.5372 3.28776L11.1248 3.7002C10.897 3.92802 10.5276 3.92803 10.2998 3.70023V3.70023C10.072 3.47242 10.0719 3.10303 10.2998 2.8752L10.7122 2.46277ZM2.87512 10.2999C3.10293 10.072 3.47229 10.072 3.7001 10.2999V10.2999C3.9279 10.5277 3.9279 10.897 3.7001 11.1248L3.28763 11.5373C3.05981 11.7651 2.69044 11.7651 2.46263 11.5373V11.5373C2.23483 11.3095 2.23484 10.9402 2.46264 10.7124L2.87512 10.2999ZM12.8333 6.41671C13.1554 6.41671 13.4166 6.67788 13.4166 7.00004V7.00004C13.4166 7.3222 13.1554 7.58337 12.8333 7.58337H12.2499C11.9278 7.58337 11.6666 7.3222 11.6666 7.00004V7.00004C11.6666 6.67788 11.9278 6.41671 12.2499 6.41671H12.8333ZM1.74992 6.41671C2.07208 6.41671 2.33325 6.67788 2.33325 7.00004V7.00004C2.33325 7.3222 2.07208 7.58337 1.74992 7.58337H1.16658C0.844417 7.58337 0.583252 7.3222 0.583252 7.00004V7.00004C0.583252 6.67788 0.844418 6.41671 1.16658 6.41671H1.74992Z" fill="#E8E8F6"/>
</g>
</g>
<defs>
<clipPath id="clip0_171_12122">
<rect width="14" height="14" fill="white"/>
</clipPath>
</defs>
</svg>
